<?xml version="1.0" encoding="UTF-8" standalone="no"?>
<svg
   xmlns:dc="http://purl.org/dc/elements/1.1/"
   xmlns:cc="http://creativecommons.org/ns#"
   xmlns:rdf="http://www.w3.org/1999/02/22-rdf-syntax-ns#"
   xmlns:svg="http://www.w3.org/2000/svg"
   xmlns="http://www.w3.org/2000/svg"
   id="svg2"
   version="1.1"
   viewBox="0 0 260 35"
   height="35px"
   width="260px">
  <metadata
     id="metadata53">
    <rdf:RDF>
      <cc:Work
         rdf:about="">
        <dc:format>image/svg+xml</dc:format>
        <dc:type
           rdf:resource="http://purl.org/dc/dcmitype/StillImage" />
        <dc:title>C641565E-8BC8-4E5D-AAFA-39E4CCC838F2</dc:title>
      </cc:Work>
    </rdf:RDF>
  </metadata>
  <!-- Generator: sketchtool 52.1 (67048) - http://www.bohemiancoding.com/sketch -->
  <title
     id="title4">C641565E-8BC8-4E5D-AAFA-39E4CCC838F2</title>
  <desc
     id="desc6">Created with sketchtool.</desc>
  <defs
     id="defs8">
    <rect
       height="100"
       width="1440"
       y="0"
       x="0"
       id="path-1" />
    <filter
       id="filter-2"
       filterUnits="objectBoundingBox"
       height="102.0%"
       width="100.1%"
       y="-0.5%"
       x="-0.0%">
      <feOffset
         id="feOffset12"
         result="shadowOffsetOuter1"
         in="SourceAlpha"
         dy="1"
         dx="0" />
      <feColorMatrix
         id="feColorMatrix14"
         in="shadowOffsetOuter1"
         type="matrix"
         values="0 0 0 0 0   0 0 0 0 0   0 0 0 0 0  0 0 0 0.1 0" />
    </filter>
  </defs>
  <g
     id="Images-/-SDG-Logo"
     style="fill:none;fill-rule:evenodd;stroke:none;stroke-width:1">
    <g
       id="g29">
      <path
         style="fill:#5eba47"
         id="Fill-1"
         d="M 47.644106,9.9838186 C 47.992148,9.3932794 48.41482,8.8516373 48.899053,8.3724461 L 44.783246,3.8694559 c -1.035529,0.9872059 -1.918704,2.1322549 -2.613241,3.393799 l 5.474101,2.7205637 z" />
      <path
         style="fill:#d19f2b"
         id="Fill-3"
         d="m 57.734186,6.8025931 c 0.623003,0.2846324 1.202844,0.6481863 1.726112,1.078652 L 63.587626,3.3851177 C 62.500681,2.4497255 61.267745,1.6781814 59.92957,1.1080588 l -2.195384,5.6945343 z" />
      <path
         style="fill:#c22032"
         id="Fill-5"
         d="m 67.186648,8.1563726 -5.470489,2.7207354 c 0.261203,0.608382 0.446918,1.254853 0.547513,1.928774 l 6.085926,-0.57321 C 68.169558,10.795098 67.77096,9.4247794 67.186648,8.1563726" />
      <path
         style="fill:#2f9947"
         id="Fill-7"
         d="M 61.323459,10.088544 66.793777,7.368152 C 66.115919,6.1117549 65.25166,4.970652 64.237454,3.9817304 L 60.10961,8.477 c 0.470304,0.4821078 0.879391,1.0230637 1.213849,1.611544" />
      <path
         style="fill:#47783c"
         id="Fill-9"
         d="m 46.556766,13.967265 c 0,-0.123015 0.0041,-0.245858 0.0098,-0.3675 l -6.087301,-0.543873 c -0.01874,0.300932 -0.03061,0.604951 -0.03061,0.911373 0,1.164779 0.144789,2.296274 0.414418,3.377843 l 5.878717,-1.682574 c -0.12037,-0.546446 -0.185026,-1.113137 -0.185026,-1.695269" />
      <path
         style="fill:#fcb615"
         id="Fill-11"
         d="m 60.557542,18.958831 c -0.432817,0.525343 -0.932354,0.993725 -1.48451,1.393309 l 3.213889,5.191666 c 1.192354,-0.806372 2.254881,-1.791348 3.147169,-2.916152 l -4.876548,-3.668823 z" />
      <path
         style="fill:#ee402a"
         id="Fill-13"
         d="m 62.348825,13.967265 c 0,0.575098 -0.06173,1.135613 -0.181243,1.675539 l 5.878201,1.685147 c 0.268082,-1.076765 0.411151,-2.202598 0.411151,-3.360686 0,-0.288064 -0.0096,-0.573383 -0.02751,-0.857672 l -6.086098,0.573726 c 0.0034,0.09471 0.0055,0.188725 0.0055,0.283946" />
      <path
         style="fill:#f89b25"
         id="Fill-15"
         d="m 48.446787,19.074949 -4.865198,3.68924 c 0.905013,1.111421 1.976309,2.080612 3.177433,2.871715 l 3.21303,-5.186176 c -0.566085,-0.39049 -1.078863,-0.853382 -1.525265,-1.374779" />
      <path
         style="fill:#007dbb"
         id="Fill-17"
         d="m 46.655349,12.723392 c 0.109021,-0.685931 0.308148,-1.34201 0.583281,-1.956225 L 41.76986,8.0488333 c -0.603916,1.2829902 -1.018334,2.6718387 -1.206799,4.1294857 l 6.092288,0.545073 z" />
      <path
         style="fill:#8e1837"
         id="Fill-19"
         d="M 61.539249,26.013596 58.330003,20.82862 c -0.583109,0.328554 -1.210754,0.585907 -1.872963,0.75902 l 1.132685,5.998039 c 1.409365,-0.323235 2.737738,-0.859216 3.949524,-1.572083" />
      <path
         style="fill:#00add7"
         id="Fill-21"
         d="m 61.93372,16.492034 c -0.212884,0.623995 -0.500741,1.212133 -0.854458,1.755147 l 4.881018,3.673113 c 0.792553,-1.136814 1.418823,-2.396127 1.846654,-3.744142 L 61.93372,16.492034 Z" />
      <path
         style="fill:#f26d24"
         id="Fill-23"
         d="m 55.591594,21.762914 c -0.371429,0.05353 -0.751799,0.0827 -1.138704,0.0827 -0.311243,0 -0.617672,-0.01939 -0.919285,-0.05404 l -1.131998,5.997696 c 0.670119,0.09797 1.354511,0.149951 2.051283,0.149951 0.772778,0 1.531455,-0.06331 2.270013,-0.184093 l -1.131309,-5.992206 z" />
      <path
         style="fill:#ea1c2d"
         id="Fill-25"
         d="m 54.957672,6.1047549 c 0.678029,0.043578 1.33336,0.1720833 1.953783,0.3764216 L 59.106839,0.78852941 C 57.800648,0.32803922 56.407619,0.05558824 54.957672,0.00463235 l 0,6.10012255 z" />
      <path
         style="fill:#df1a83"
         id="Fill-27"
         d="M 52.663619,21.641272 C 51.979056,21.482228 51.32854,21.234311 50.725484,20.909875 l -3.215608,5.18875 c 1.236891,0.70652 2.58951,1.229461 4.022777,1.534338 l 1.130966,-5.991691 z" />
      <path
         style="fill:#1a3668"
         id="Fill-29"
         d="M 52.079737,6.4529191 C 52.713917,6.2530417 53.382488,6.1312279 54.07479,6.098973 l 0,-6.098921529412 C 52.604895,0.03899755 51.193467,0.3061299 49.869393,0.76421814 l 2.210344,5.68870096 z" />
      <path
         style="fill:#cc8a2a"
         id="Fill-31"
         d="m 47.911276,18.373936 c -0.387592,-0.571323 -0.704166,-1.197377 -0.93115,-1.86272 l -5.874762,1.681887 c 0.444854,1.397941 1.10414,2.700833 1.940198,3.870073 l 4.865714,-3.68924 z" />
      <path
         style="fill:#005589"
         id="Fill-33"
         d="M 49.560488,7.7877745 C 50.076877,7.3797843 50.645025,7.0359608 51.254099,6.7655686 L 49.044787,1.0796127 c -1.315476,0.5510785 -2.528294,1.297402 -3.603029,2.2013971 l 4.11873,4.5067647 z" />
      <path
         style="fill:#363840"
         id="Fill-35"
         d="M 16.446874,3.2638186 C 14.351742,2.0782794 11.443766,1.3297255 9.0676548,1.3297255 c -4.7216138,0 -8.12947094,3.1196323 -8.12947094,7.8928431 0,4.5546324 2.53259264,5.5531614 6.37859784,6.6448534 1.3132408,0.374362 3.7206483,0.967132 3.7206483,2.683161 0,1.653236 -1.532143,2.370736 -2.970225,2.370736 -2.0953042,0 -3.9085979,-1.091692 -5.4407407,-2.43353 L -1.7195767e-5,23.417299 C 2.4073902,25.10176 5.3153664,26.100118 8.2861071,26.100118 c 2.3761109,0 4.8464549,-0.655221 6.6910449,-2.215123 1.876058,-1.590956 2.439048,-3.993088 2.439048,-6.333113 0,-3.805735 -2.532765,-5.459485 -5.815953,-6.426617 L 10.03698,10.657569 C 8.9739378,10.314431 7.3167817,9.7839412 7.3167817,8.4113922 c 0,-1.3102696 1.5006747,-1.9654902 2.6264815,-1.9654902 1.5005028,0 2.9391008,0.6241666 4.0645638,1.5600735 L 16.446874,3.2638186 Z M 37.177403,2.5152647 C 35.363594,1.7661961 33.5503,1.3297255 31.580525,1.3297255 c -3.314828,0 -6.660264,1.4348284 -8.973955,3.8059068 -2.25127,2.3086275 -3.470794,5.3972057 -3.470794,8.6105147 0,3.493824 1.188228,6.551176 3.783585,8.891029 2.438532,2.214952 5.56541,3.462942 8.848598,3.462942 1.907183,0 3.376905,-0.467868 5.409444,-1.091863 l 0,-7.331299 c -1.282116,1.528676 -3.283187,2.495809 -5.284259,2.495809 -3.814709,0 -6.37877,-2.683162 -6.37877,-6.395564 0,-3.650123 2.532765,-6.5202941 6.284709,-6.5202941 2.095133,0 4.1275,0.9048529 5.37832,2.5893137 l 0,-7.3309559 z m 47.931826,-0.5617157 0,12.385196 c 0,3.057353 -0.219074,6.395221 -4.158625,6.395221 -3.939722,0 -4.158624,-3.337868 -4.158624,-6.395221 l 0,-12.385196 -6.128399,0 0,13.227598 c 0,3.026299 0.125185,6.021029 2.470172,8.298431 1.969775,1.934265 5.065529,2.62054 7.816851,2.62054 2.751667,0 5.847077,-0.686275 7.816852,-2.62054 2.345331,-2.277402 2.470172,-5.272132 2.470172,-8.298431 l 0,-13.227598 -6.128399,0 z m 19.385991,5.178799 5.06553,0 0,-5.178799 -16.259114,0 0,5.178799 5.065185,0 0,18.343774 6.128399,0 0,-18.343774 z m 22.66901,-3.8685294 c -2.09496,-1.1855392 -5.00277,-1.9340931 -7.37922,-1.9340931 -4.72144,0 -8.12982,3.1196323 -8.12982,7.8928431 0,4.5546324 2.53277,5.5531614 6.37877,6.6448534 1.31307,0.374362 3.72082,0.967132 3.72082,2.683161 0,1.653236 -1.53214,2.370736 -2.97022,2.370736 -2.09513,0 -3.90843,-1.091692 -5.44074,-2.43353 l -2.62631,4.92951 c 2.40741,1.684461 5.31538,2.682819 8.28561,2.682819 2.37663,0 4.84663,-0.655221 6.69139,-2.215123 1.87623,-1.590956 2.43904,-3.993088 2.43904,-6.333113 0,-3.805735 -2.53276,-5.459485 -5.8156,-6.426617 l -1.56362,-0.467696 c -1.06338,-0.343138 -2.72037,-0.8736278 -2.72037,-2.2461768 0,-1.3102696 1.50085,-1.9654902 2.62631,-1.9654902 1.50119,0 2.93962,0.6241666 4.06508,1.5600735 l 2.43888,-4.7421569 z" />
      <path
         style="fill:#363840"
         id="Fill-38"
         d="m 192.51323,3.1576005 c -2.11869,-1.1989216 -5.05951,-1.9560539 -7.46262,-1.9560539 -4.77509,0 -8.22198,3.155147 -8.22198,7.9822304 0,4.606446 2.56183,5.615956 6.45116,6.720343 1.32786,0.378652 3.76295,0.977941 3.76295,2.713358 0,1.671936 -1.54968,2.397671 -3.0041,2.397671 -2.11886,0 -3.95296,-1.104387 -5.50247,-2.460808 l -2.65606,4.984926 c 2.43492,1.703848 5.37557,2.713358 8.37967,2.713358 2.40345,0 4.90148,-0.662427 6.76705,-2.24 1.89755,-1.609142 2.46656,-4.038554 2.46656,-6.404657 0,-3.849314 -2.56114,-5.521593 -5.88146,-6.499363 l -1.58116,-0.473357 c -1.0749,-0.347084 -2.75098,-0.8835789 -2.75098,-2.2719122 0,-1.3251961 1.5177,-1.9876226 2.65606,-1.9876226 1.51787,0 2.97264,0.631201 4.11099,1.5775736 l 2.46639,-4.7956863 z m 3.92098,22.4639955 8.79117,0 c 6.60885,0 12.11132,-5.205736 12.11132,-11.894339 0,-6.6891173 -5.47101,-11.894681 -12.11132,-11.894681 l -8.79117,0 0,23.78902 z m 6.19804,-18.5515445 1.45477,0 c 3.98426,0 6.79869,2.3975 6.79869,6.6572055 0,4.637843 -3.16248,6.656691 -6.86197,6.656691 l -1.39149,0 0,-13.3138965 z m 29.06068,5.2690445 0,4.858823 5.05968,0 c -0.25312,2.744755 -2.30853,4.133088 -4.99623,4.133088 -4.07969,0 -6.29296,-3.754608 -6.29296,-7.44625 0,-3.62799 2.11835,-7.5090438 6.19804,-7.5090438 2.49786,0 4.30032,1.5144363 5.15409,3.7863478 l 5.88198,-2.4613233 c -2.05558,-4.4484313 -5.85017,-6.6570343 -10.75148,-6.6570343 -7.68427,0 -12.93362,5.0798039 -12.93362,12.8096566 0,7.477647 5.21771,12.557108 12.71197,12.557108 3.9846,0 7.4946,-1.419559 9.83477,-4.669583 2.11835,-2.965907 2.37147,-5.931299 2.43492,-9.401789 l -12.30116,0 z M 259.3623,9.9409093 c -1.67608,-0.7571323 -3.51035,-1.0410784 -5.34428,-1.0410784 -3.54181,0 -7.14673,1.7669851 -7.14673,5.7422301 0,2.902427 1.80263,3.786177 3.60492,4.259535 1.80246,0.473014 3.60526,0.53598 3.60526,1.79821 0,0.883407 -1.07542,1.230491 -1.8028,1.230491 -1.42312,0 -3.38361,-0.820442 -4.55344,-1.640883 l -2.08705,4.006985 c 1.96066,1.199094 4.23738,1.861692 6.54557,1.861692 3.76312,0 7.6528,-1.766986 7.6528,-6.026005 0,-2.997476 -2.02411,-4.259706 -4.71164,-4.795858 -0.79083,-0.157843 -2.59329,-0.315686 -2.59329,-1.41973 0,-0.82027 1.13836,-1.104388 1.80246,-1.104388 0.9805,0 2.21378,0.315343 3.09902,0.788701 l 1.9292,-3.6599017 z" />
      <path
         style="fill:#363840"
         id="Fill-40"
         d="m 135.78215,13.042407 4.15346,0 -3.52771,14.505441 c -0.52172,2.145123 -1.04275,3.492966 -1.5643,4.044387 -0.52103,0.551079 -1.35503,0.826618 -2.50233,0.826618 -0.74114,0 -1.51735,-0.0537 -2.32848,-0.159902 -0.47494,-0.05971 -0.83382,-0.08922 -1.07714,-0.08922 -0.48664,0 -0.8603,0.109633 -1.12116,0.329069 -0.26035,0.219265 -0.39069,0.512475 -0.39069,0.879632 0,0.427035 0.18795,0.784927 0.56471,1.075907 0.37658,0.289951 0.9296,0.435441 1.65939,0.435441 2.17836,0 4.19663,-0.889068 6.056,-2.666691 1.85921,-1.777451 3.212,-4.390613 4.05769,-7.839314 l 2.72071,-11.341372 4.66487,0 0.27771,-1.26223 -4.60382,0 0.87234,-3.7863486 c 0.37143,-1.6467157 0.86426,-2.9535539 1.47935,-3.9194853 0.61492,-0.9659313 1.30516,-1.448897 2.07123,-1.448897 0.31297,0 0.74819,0.059706 1.30516,0.1775735 1.12547,0.2491177 1.89119,0.3733333 2.29718,0.3733333 0.39448,0 0.71346,-0.1182107 0.95729,-0.3554901 0.24384,-0.2369363 0.36576,-0.5334069 0.36576,-0.888554 0,-0.3910049 -0.18021,-0.7289951 -0.53909,-1.01328429 -0.35922,-0.28428922 -0.89194,-0.42651961 -1.59852,-0.42651961 -1.25133,0 -2.58332,0.41759804 -3.99664,1.2529657 -1.41383,0.8357108 -2.56062,1.976299 -3.44104,3.4219363 -0.88043,1.4461519 -1.66266,3.6504657 -2.34602,6.6127701 l -4.15312,0 -0.31279,1.26223 z m 13.18966,1.511176 c -1.39027,2.109265 -2.0855,4.408285 -2.0855,6.897231 0,1.433799 0.37951,2.565637 1.13836,3.395343 0.75851,0.829191 1.75775,1.244044 2.99774,1.244044 2.01569,0 3.927,-1.045539 5.73462,-3.137476 1.8071,-2.091593 2.71056,-4.452892 2.71056,-7.083725 0,-1.64723 -0.37658,-2.933309 -1.12941,-3.857721 -0.75318,-0.92424 -1.6974,-1.386617 -2.83266,-1.386617 -2.60636,0 -4.78455,1.309755 -6.53371,3.928921 z m 6.82036,-1.45799 c 0.46962,0.758677 0.704,2.02674 0.704,3.804363 0,2.370392 -0.50986,4.355098 -1.52905,5.954804 -0.7996,1.232892 -1.6857,1.849167 -2.65898,1.849167 -0.69506,0 -1.25099,-0.325981 -1.66851,-0.97777 -0.56729,-0.889069 -0.85119,-2.103775 -0.85119,-3.644289 0,-2.535785 0.4605,-4.524265 1.38134,-5.964069 0.92117,-1.439804 1.87382,-2.159534 2.85879,-2.159534 0.70641,0 1.29467,0.379338 1.7636,1.137328 z m 9.32544,9.031029 c 0.52223,-2.310343 0.91103,-3.782744 1.16656,-4.416691 0.25536,-0.633431 0.70434,-1.377353 1.34694,-2.23125 0.64227,-0.853382 1.23294,-1.487328 1.771,-1.902696 0.53857,-0.414853 1.23603,-0.770343 2.09272,-1.066813 0.90261,-0.308138 1.4668,-0.574755 1.69275,-0.800025 0.22578,-0.224926 0.33841,-0.49772 0.33841,-0.817868 0,-0.307622 -0.11641,-0.5775 -0.34838,-0.808774 -0.23214,-0.2312746 -0.52224,-0.3463972 -0.87028,-0.3463972 -0.47598,0 -1.0682,0.3215202 -1.77615,0.9635292 -1.47419,1.344412 -2.79741,2.962133 -3.96982,4.853677 l 0.75576,-3.198039 c 0.15253,-0.667059 0.22887,-1.077795 0.22887,-1.232721 0,-0.153897 -0.061,-0.281201 -0.18244,-0.382255 -0.12192,-0.100368 -0.28666,-0.151152 -0.49541,-0.151152 -0.59051,0 -1.43912,0.305221 -2.54463,0.91549 -1.10603,0.610613 -2.21499,1.526103 -3.3267,2.746471 l 0.53892,0.622279 c 0.9382,-0.959755 1.58683,-1.561103 1.94604,-1.804387 0.3594,-0.242941 0.62576,-0.364583 0.79961,-0.364583 0.2545,0 0.38243,0.142573 0.38243,0.427034 0,0.130392 -0.0526,0.456373 -0.15665,0.977598 -0.44056,2.109608 -0.95557,4.337598 -1.54642,6.684142 l -1.2166,4.781446 2.58934,0 0.78413,-3.448015 z" />
    </g>
  </g>
</svg>
